<svg width="80" height="56" viewBox="0 0 80 56" fill="none" xmlns="http://www.w3.org/2000/svg">
<path fill-rule="evenodd" clip-rule="evenodd" d="M7 2.00391V51.0016L76 51.0016L76 54.0016H4V2.00391H7Z" class="svg-primary-color"/>
<path fill-rule="evenodd" clip-rule="evenodd" d="M7 2.00391V51.0016L76 51.0016L76 54.0016H4V2.00391H7Z" fill="white" fill-opacity="0.6"/>
<circle cx="22" cy="36" r="6" class="svg-primary-color"/>
<circle cx="22" cy="36" r="6" fill="white" fill-opacity="0.4"/>
<circle cx="36" cy="18" r="4" class="svg-primary-color"/>
<circle cx="50" cy="28" r="8" class="svg-primary-color"/>
<circle cx="50" cy="28" r="8" fill="white" fill-opacity="0.2"/>
<circle cx="64" cy="14" r="5" class="svg-primary-color"/>
<circle cx="64" cy="14" r="5" fill="white" fill-opacity="0.4"/>
<circle cx="30" cy="24" r="3" class="svg-primary-color"/>
<circle cx="30" cy="24" r="3" fill="white" fill-opacity="0.6"/>
<circle cx="58" cy="40" r="7" class="svg-primary-color"/>
<circle cx="42" cy="42" r="3.5" class="svg-primary-color"/>
<circle cx="42" cy="42" r="3.5" fill="white" fill-opacity="0.3"/>
<circle cx="18" cy="14" r="4.5" class="svg-primary-color"/>
<circle cx="18" cy="14" r="4.5" fill="white" fill-opacity="0.5"/>
</svg>

