<?xml version="1.0" standalone="no"?><!DOCTYPE svg PUBLIC "-//W3C//DTD SVG 1.1//EN" "http://www.w3.org/Graphics/SVG/1.1/DTD/svg11.dtd"><svg t="1751615687269" class="icon" viewBox="0 0 1024 1024" version="1.1" xmlns="http://www.w3.org/2000/svg" p-id="1554" xmlns:xlink="http://www.w3.org/1999/xlink" width="200" height="200"><path d="M563.2 164.437333a30.72 30.72 0 1 1 0 61.44H261.12a44.373333 44.373333 0 0 0-32.597333 13.525334 44.373333 44.373333 0 0 0-13.482667 32.554666v278.741334l64.554667-58.026667c16.213333-14.549333 35.157333-21.546667 56.874666-20.992 21.76 0.554667 40.32 8.533333 55.722667 23.850667l113.237333 113.194666 74.538667-64.554666c16.213333-14.762667 35.328-21.845333 57.216-21.290667 21.930667 0.554667 40.618667 8.618667 56.064 24.192l115.712 111.146667v-186.581334a30.72 30.72 0 0 1 61.44 0v302.08c0 29.696-10.496 55.04-31.488 76.032a103.594667 103.594667 0 0 1-76.032 31.488H261.12c-29.696 0-55.04-10.496-76.032-31.488a103.594667 103.594667 0 0 1-31.488-76.032V271.957333c0-29.696 10.496-55.04 31.488-76.032a103.594667 103.594667 0 0 1 76.032-31.488h302.08z m-242.517333 373.888L215.04 633.344v140.373333c0 12.757333 4.48 23.594667 13.482667 32.597334 8.96 8.96 19.84 13.482667 32.597333 13.482666h368.597333l-280.874666-280.746666c-9.173333-9.088-18.56-9.344-28.16-0.725334z m300.629333 51.285334l-72.32 62.677333 167.637333 167.509333h46.250667c12.714667 0 23.552-4.48 32.554667-13.482666 9.002667-8.96 13.525333-19.84 13.525333-32.597334v-30.293333l-159.317333-153.088c-9.216-9.258667-18.645333-9.514667-28.330667-0.725333zM665.6 178.432a33.28 33.28 0 0 1 52.693333-27.050667l147.456 105.813334a33.28 33.28 0 0 1 0 54.058666l-147.456 105.813334A33.28 33.28 0 0 1 665.6 389.973333V178.346667z" p-id="1555"></path></svg>