<?xml version="1.0" standalone="no"?><!DOCTYPE svg PUBLIC "-//W3C//DTD SVG 1.1//EN" "http://www.w3.org/Graphics/SVG/1.1/DTD/svg11.dtd"><svg t="1752113357103" class="icon" viewBox="0 0 1024 1024" version="1.1" xmlns="http://www.w3.org/2000/svg" p-id="4638" xmlns:xlink="http://www.w3.org/1999/xlink" width="200" height="200"><path d="M513.536 959.488c-244.992 0-444.2624-199.3216-444.2624-444.2624 0-244.992 199.3216-444.2624 444.2624-444.2624 244.992 0 444.2624 199.3216 444.2624 444.2624 0 244.9408-199.2704 444.2624-444.2624 444.2624z m0-816.896c-205.4656 0-372.5824 167.168-372.5824 372.5824 0 205.4656 167.168 372.5824 372.5824 372.5824 205.4656 0 372.5824-167.168 372.5824-372.5824s-167.1168-372.5824-372.5824-372.5824z" p-id="4639"></path><path d="M777.8816 570.4704V355.3792h-93.3888v61.44h31.9488v92.2112H476.672v73.0112H419.2256v251.4944h173.568v-251.4944H538.112v-11.5712h239.7696z m-256.768 191.3856h-30.208v-108.1344h30.208v108.1344z"  p-id="4640"></path><path d="M698.9312 489.0624H279.9104v-212.48h419.0208v212.48z m-347.3408-71.68h275.6608v-69.12H351.5904v69.12z"  p-id="4641"></path></svg>
