<svg xmlns="http://www.w3.org/2000/svg" width="134" height="34" viewBox="0 0 134 34"><g transform="translate(28.3,4.8)"><rect x="0.00" y="9.64" width="3.91" height="12.15" rx="1.17" fill="#FFC53D"/><rect x="5.64" y="2.69" width="3.91" height="19.09" rx="1.17" fill="#3B82F6"/><rect x="11.28" y="7.03" width="3.91" height="14.75" rx="1.17" fill="#FB5A5A"/><path d="M8.59812119487909 0.22669246088193457Q6.92491493598862 0.22669246088193457 5.499990896159317 -0.36702588904694167Q4.075066856330014 -0.9607442389758178 3.0117712660028446 -2.0321359886201993Q1.9484756756756756 -3.1035277382645803 1.3682509246088193 -4.528451778093883Q0.788026173541963 -5.953375817923186 0.788026173541963 -7.594197439544808Q0.788026173541963 -9.240416500711238 1.3682509246088193 -10.662641820768137Q1.9484756756756756 -12.084867140825034 3.0090725462304406 -13.142765291607397Q4.069669416785206 -14.200663442389757 5.491894736842105 -14.802477951635845Q6.914120056899004 -15.404292460881933 8.587326315789474 -15.404292460881933Q10.411660881934566 -15.404292460881933 11.788007965860597 -14.810574110953057Q13.164355049786629 -14.216855761024181 14.216855761024181 -13.191342247510669L12.235995448079658 -11.205084495021337Q11.604495021337126 -11.895956756756757 10.697725177809389 -12.284572403982931Q9.79095533428165 -12.673188051209104 8.587326315789474 -12.673188051209104Q7.529428165007112 -12.673188051209104 6.652344238975818 -12.311559601706971Q5.775260312944523 -11.949931152204837 5.135663726884779 -11.272552489331437Q4.496067140825035 -10.595173826458037 4.147932290184921 -9.658718065433856Q3.799797439544808 -8.722262304409673 3.799797439544808 -7.594197439544808Q3.799797439544808 -6.460735135135135 4.147932290184921 -5.524279374110953Q4.496067140825035 -4.587823613086771 5.135663726884779 -3.910444950213371Q5.775260312944523 -3.2330662873399714 6.652344238975818 -2.8687391180654336Q7.529428165007112 -2.5044119487908962 8.587326315789474 -2.5044119487908962Q9.866519487908961 -2.5044119487908962 10.778686770981508 -2.8957263157894735Q11.690854054054054 -3.287040682788051 12.333149359886201 -3.9833103840682784L14.319407112375533 -1.9970526315789472Q13.256111522048364 -0.9553467994310099 11.847379800853485 -0.3643271692745377Q10.438648079658606 0.22669246088193457 8.59812119487909 0.22669246088193457ZM16.35198520625889 0.0V-10.42785320056899H19.19103840682788V0.0ZM19.19103840682788 -5.759067994310099 18.084563300142246 -6.503914651493599Q18.28966600284495 -8.40921081081081 19.21799249142588 -9.52648079658606Q20.146318980006807 -10.643750782361309 21.884360739687054 -10.643750782361309Q22.650797155049787 -10.643750782361309 23.252611664295877 -10.390071123755334Q23.854426173541963 -10.136391465149359 24.340195732574678 -9.585852631578947L22.580630440967283 -7.545620483641536Q22.332348221906116 -7.815492460881934 21.99980597439545 -7.942332290184922Q21.66726372688478 -8.06917211948791 21.231270554765292 -8.06917211948791Q20.324500711237555 -8.06917211948791 19.757769559032717 -7.503798813709439Q19.19103840682788 -6.93842550793097 19.19103840682788 -5.759067994310099ZM31.01457183499289 0.22669246088193457Q29.384545092460883 0.22669246088193457 28.10265320056899 -0.47497467994310105Q26.8207613086771 -1.1766418207681366 26.08131209103841 -2.415354196301565Q25.34186287339972 -3.654066571834993 25.34186287339972 -5.213926600284495Q25.34186287339972 -6.768389189189189 26.06781849217639 -7.996306685633002Q26.79377411095306 -9.224224182076814 28.043281365576103 -9.93938492176387Q29.292788620199147 -10.654545661450925 30.831058890469418 -10.654545661450925Q32.33154708392603 -10.654545661450925 33.48390042674254 -9.982564438122333Q34.63625376955903 -9.310583214793741 35.29474139402561 -8.133941394025605Q35.95322901849218 -6.957299573257468 35.95322901849218 -5.451413940256045Q35.95322901849218 -5.176144523470839 35.92084438122333 -4.884682788051209Q35.888459743954485 -4.593221052631579 35.81289559032717 -4.231592603129445L27.03665889046942 -4.215400284495021V-6.320401706970128L34.495920341394026 -6.336594025604552L33.340868278805125 -5.467606258890469Q33.30848364153628 -6.395965860597439 33.01432318634424 -7.019370128022759Q32.72016273115221 -7.642774395448079 32.1723226173542 -7.972018207681365Q31.62448250355619 -8.30126201991465 30.820264011379802 -8.30126201991465Q29.97826344238976 -8.30126201991465 29.357557894736843 -7.928838691322902Q28.73685234708393 -7.556415362731152 28.399512375533433 -6.879036699857752Q28.062172403982935 -6.201658036984353 28.062172403982935 -5.257106116642959Q28.062172403982935 -4.307156756756757 28.421102133712665 -3.608188335704125Q28.780031863442392 -2.9092199146514934 29.44391692745377 -2.5340978662873397Q30.107801991465152 -2.1589758179231864 30.998379516358465 -2.1589758179231864Q31.786405689900427 -2.1589758179231864 32.43949587482219 -2.4315465149359885Q33.09258605974396 -2.7041172119487906 33.56756073968705 -3.2438611664295873L35.22997211948791 -1.570654907539118Q34.46353570412518 -0.6800773826458036 33.373252916073966 -0.22669246088193454Q32.28297012802276 0.22669246088193457 31.01457183499289 0.22669246088193457ZM41.60209160739687 0.24288477951635845Q40.70611664295875 0.24288477951635845 39.858718634423894 0.008096159317211943Q39.01132062588905 -0.22669246088193457 38.29615988620199 -0.6557889046941678Q37.58099914651494 -1.0848853485064012 37.062844950213375 -1.6840011379800852L38.752243527738266 -3.3895920341394024Q39.286590042674256 -2.7904762446657183 39.993654623044094 -2.4801234708392603Q40.70071920341394 -2.1697706970128023 41.564309530583216 -2.1697706970128023Q42.25518179231864 -2.1697706970128023 42.61411152204837 -2.372174679943101Q42.9730412517781 -2.5745786628733995 42.9730412517781 -2.9577968705547653Q42.9730412517781 -3.3895920341394024 42.59252176386914 -3.621681934566145Q42.212002275960174 -3.8537718349928873 41.61288648648649 -4.023791180654339Q41.0137706970128 -4.193810526315789 40.34988563300142 -4.39081706970128Q39.686000568990046 -4.587823613086771 39.084186059743956 -4.927862304409673Q38.48237155049787 -5.267900995732575 38.104550782361315 -5.864318065433855Q37.726730014224756 -6.460735135135135 37.726730014224756 -7.405287055476529Q37.726730014224756 -8.403813371266002 38.21789701280228 -9.135166429587482Q38.7090640113798 -9.866519487908961 39.610436415362734 -10.274026173541962Q40.51180881934567 -10.681532859174965 41.74782247510669 -10.681532859174965Q43.037810526315795 -10.681532859174965 44.08761251778094 -10.230846657183498Q45.13741450924609 -9.780160455192034 45.81749189189189 -8.878788051209103L44.12269587482219 -7.173197155049786Q43.64772119487909 -7.7453257467994305 43.04860540540541 -8.007101564722618Q42.449489615931725 -8.268877382645803 41.77480967283073 -8.268877382645803Q41.137911806543386 -8.268877382645803 40.8059692745377 -8.077268278805121Q40.47402674253201 -7.885659174964438 40.47402674253201 -7.53482560455192Q40.47402674253201 -7.1516073968705545 40.85184751066856 -6.935709815078235Q41.22966827880512 -6.719812233285917 41.82878406827881 -6.557889046941678Q42.42789985775249 -6.395965860597439 43.089086201991464 -6.188164438122333Q43.75027254623044 -5.980363015647226 44.34938833570413 -5.6160358463726885Q44.94850412517781 -5.251708677098151 45.326324893314364 -4.647195448079659Q45.70414566145092 -4.042682219061167 45.70414566145092 -3.0765405405405404Q45.70414566145092 -1.5490651493598862 44.59767055476529 -0.6530901849217638Q43.49119544807966 0.24288477951635845 41.60209160739687 0.24288477951635845ZM49.42072489331437 0.0V-14.756599715504978H52.25977809388336V0.0ZM46.99187709815079 -7.945031009957326V-10.42785320056899H54.688625889046946V-7.945031009957326Z" transform="translate(22.72,19.82)" fill="#1E1E24"/></g></svg>