<svg width="28" height="6" viewBox="0 0 28 6" xmlns="http://www.w3.org/2000/svg">
<path class="svg-primary-color" d="M2.76805 -2.57492e-05C3.63205 -2.57492e-05 4.32005 0.279974 4.82405 0.847974C5.30405 1.38397 5.54405 2.09597 5.54405 2.97597C5.54405 3.84797 5.30405 4.55197 4.82405 5.09597C4.32005 5.65597 3.63205 5.93597 2.76805 5.93597C1.89605 5.93597 1.20805 5.64797 0.712054 5.08797C0.232054 4.54397 5.37336e-05 3.83997 5.37336e-05 2.97597C5.37336e-05 2.10397 0.232054 1.39997 0.712054 0.855974C1.20805 0.279974 1.89605 -2.57492e-05 2.76805 -2.57492e-05ZM2.76805 0.767974C2.16005 0.767974 1.68805 0.967974 1.35205 1.38397C1.03205 1.77597 0.872054 2.30397 0.872054 2.97597C0.872054 3.63997 1.03205 4.16797 1.35205 4.55997C1.68805 4.95997 2.16005 5.16797 2.76805 5.16797C3.37605 5.16797 3.84805 4.96797 4.17605 4.57597C4.49605 4.19197 4.66405 3.65597 4.66405 2.97597C4.66405 2.28797 4.49605 1.75197 4.17605 1.35997C3.84805 0.959974 3.37605 0.767974 2.76805 0.767974ZM8.06755 0.111974H9.05955L11.2596 5.82397H10.3236L9.78755 4.35197H7.33155L6.79555 5.82397H5.86755L8.06755 0.111974ZM7.59555 3.63197H9.52355L8.57955 1.04797H8.54755L7.59555 3.63197ZM11.7382 1.68797H12.5862V4.20797C12.5862 4.55997 12.6582 4.81597 12.8102 4.97597C12.9542 5.13597 13.1942 5.22397 13.5222 5.22397C13.7462 5.22397 13.9462 5.12797 14.1382 4.95197C14.3302 4.76797 14.4662 4.51997 14.5382 4.21597V1.68797H15.3862V5.82397H14.5382V5.26397C14.1862 5.71197 13.7542 5.93597 13.2342 5.93597C12.2342 5.93597 11.7382 5.37597 11.7382 4.26397V1.68797ZM17.6114 0.351974V1.68797H18.5554V2.39197H17.6114V4.79197C17.6114 4.90397 17.6354 4.98397 17.6834 5.03997C17.7314 5.08797 17.8034 5.11997 17.9074 5.11997H18.4514V5.82397H17.7714C17.4194 5.82397 17.1554 5.72797 16.9954 5.54397C16.8354 5.36797 16.7634 5.11997 16.7634 4.79197V2.39197H15.9954V1.68797H16.7634V0.703974L17.6114 0.351974ZM19.2382 -2.57492e-05H20.0862V2.27197C20.2382 2.03197 20.4302 1.84797 20.6622 1.73597C20.8702 1.62397 21.1022 1.57597 21.3662 1.57597C21.8622 1.57597 22.2382 1.71997 22.4942 2.01597C22.7342 2.29597 22.8542 2.71197 22.8542 3.25597V5.82397H22.0062V3.39997C22.0062 3.03197 21.9262 2.75997 21.7822 2.56797C21.6222 2.36797 21.3742 2.27197 21.0542 2.27197C20.7662 2.27197 20.5342 2.38397 20.3582 2.61597C20.1742 2.84797 20.0862 3.14397 20.0862 3.50397V5.82397H19.2382V-2.57492e-05ZM25.8243 -2.57492e-05C26.3683 -2.57492e-05 26.8243 0.151974 27.1763 0.471974C27.5203 0.791975 27.6963 1.19997 27.6963 1.70397C27.6963 2.19997 27.5043 2.64797 27.1363 3.05597C26.9123 3.28797 26.5203 3.59197 25.9523 3.97597C25.3363 4.38397 24.9683 4.74397 24.8483 5.05597H27.7043V5.82397H23.7683C23.7683 5.25597 23.9523 4.75997 24.3363 4.32797C24.5443 4.07997 24.9763 3.73597 25.6243 3.28797C26.0083 3.01597 26.2803 2.79997 26.4403 2.63197C26.6963 2.34397 26.8323 2.03197 26.8323 1.69597C26.8323 1.37597 26.7443 1.13597 26.5683 0.975975C26.3923 0.815974 26.1283 0.735974 25.7923 0.735974C25.4323 0.735974 25.1603 0.855974 24.9763 1.10397C24.7843 1.34397 24.6883 1.68797 24.6723 2.15197H23.8003C23.8083 1.51197 23.9923 0.999974 24.3523 0.615974C24.7203 0.199975 25.2163 -2.57492e-05 25.8243 -2.57492e-05Z" />
</svg>
